<svg width="149" height="24" viewBox="0 0 149 24" fill="none" xmlns="http://www.w3.org/2000/svg">
<path d="M12 0C18.6274 0 24 5.37258 24 12C24 18.6274 18.6274 24 12 24C5.37258 24 0 18.6274 0 12C0 5.37258 5.37258 0 12 0Z" fill="black"/>
<g clip-path="url(#clip0_5_73)">
<path d="M8.66666 12L12 15.3333M12 15.3333L15.3333 12M12 15.3333V8.66667M20.3333 12C20.3333 16.6024 16.6024 20.3333 12 20.3333C7.39762 20.3333 3.66666 16.6024 3.66666 12C3.66666 7.39763 7.39762 3.66667 12 3.66667C16.6024 3.66667 20.3333 7.39763 20.3333 12Z" stroke="#F5F5F5" stroke-width="2" stroke-linecap="round" stroke-linejoin="round"/>
</g>
<path d="M28.8608 16.5V7.77273H34.4517V9.09801H30.4418V11.4673H34.0682V12.7926H30.4418V16.5H28.8608ZM35.8239 16.5V9.95455H37.3665V16.5H35.8239ZM36.5994 9.02557C36.3551 9.02557 36.1449 8.9446 35.9688 8.78267C35.7926 8.6179 35.7045 8.42045 35.7045 8.19034C35.7045 7.95739 35.7926 7.75994 35.9688 7.59801C36.1449 7.43324 36.3551 7.35085 36.5994 7.35085C36.8466 7.35085 37.0568 7.43324 37.2301 7.59801C37.4063 7.75994 37.4943 7.95739 37.4943 8.19034C37.4943 8.42045 37.4063 8.6179 37.2301 8.78267C37.0568 8.9446 36.8466 9.02557 36.5994 9.02557ZM41.7994 19.0909C41.2454 19.0909 40.7695 19.0156 40.3718 18.8651C39.9741 18.7173 39.6545 18.5185 39.413 18.2685C39.1715 18.0185 39.0039 17.7415 38.9102 17.4375L40.2994 17.1009C40.3619 17.2287 40.4528 17.3551 40.5721 17.4801C40.6914 17.608 40.8519 17.7131 41.0536 17.7955C41.2582 17.8807 41.5153 17.9233 41.8249 17.9233C42.2624 17.9233 42.6246 17.8168 42.9116 17.6037C43.1985 17.3935 43.342 17.0469 43.342 16.5639V15.3239H43.2653C43.1857 15.483 43.0692 15.6463 42.9158 15.8139C42.7653 15.9815 42.565 16.1222 42.315 16.2358C42.0678 16.3494 41.7567 16.4062 41.3817 16.4062C40.8789 16.4062 40.4229 16.2884 40.0138 16.0526C39.6076 15.8139 39.2837 15.4588 39.0423 14.9872C38.8036 14.5128 38.6843 13.919 38.6843 13.206C38.6843 12.4872 38.8036 11.8807 39.0423 11.3864C39.2837 10.8892 39.609 10.5128 40.0181 10.2571C40.4272 9.99858 40.8832 9.86932 41.386 9.86932C41.7695 9.86932 42.0849 9.93466 42.332 10.0653C42.582 10.1932 42.7809 10.348 42.9286 10.5298C43.0763 10.7088 43.1886 10.8778 43.2653 11.0369H43.3505V9.95455H44.8718V16.6065C44.8718 17.1662 44.7383 17.6293 44.4712 17.9957C44.2042 18.3622 43.8391 18.6364 43.3761 18.8182C42.913 19 42.3874 19.0909 41.7994 19.0909ZM41.8121 15.196C42.1388 15.196 42.4173 15.1165 42.6474 14.9574C42.8775 14.7983 43.0522 14.5696 43.1715 14.2713C43.2908 13.973 43.3505 13.6151 43.3505 13.1974C43.3505 12.7855 43.2908 12.4247 43.1715 12.1151C43.055 11.8054 42.8817 11.5653 42.6516 11.3949C42.4244 11.2216 42.1445 11.1349 41.8121 11.1349C41.4684 11.1349 41.1815 11.2244 40.9513 11.4034C40.7212 11.5824 40.5479 11.8281 40.4315 12.1406C40.315 12.4503 40.2567 12.8026 40.2567 13.1974C40.2567 13.598 40.315 13.9489 40.4315 14.25C40.5508 14.5483 40.7255 14.7812 40.9556 14.9489C41.1886 15.1136 41.4741 15.196 41.8121 15.196ZM46.4528 16.5V9.95455H47.9272V11.0668H48.0039C48.1403 10.6918 48.3661 10.3991 48.6815 10.1889C48.9968 9.97585 49.3732 9.86932 49.8107 9.86932C50.2539 9.86932 50.6275 9.97727 50.9315 10.1932C51.2383 10.4062 51.4542 10.6974 51.5792 11.0668H51.6474C51.7923 10.7031 52.0366 10.4134 52.3803 10.1974C52.7269 9.97869 53.1374 9.86932 53.6119 9.86932C54.2141 9.86932 54.7056 10.0597 55.0863 10.4403C55.467 10.821 55.6573 11.3764 55.6573 12.1065V16.5H54.1104V12.3452C54.1104 11.9389 54.0025 11.642 53.7866 11.4545C53.5707 11.2642 53.3065 11.169 52.994 11.169C52.6218 11.169 52.3306 11.2855 52.1204 11.5185C51.913 11.7486 51.8093 12.0483 51.8093 12.4176V16.5H50.2965V12.2812C50.2965 11.9432 50.1942 11.6733 49.9897 11.4716C49.788 11.2699 49.5238 11.169 49.1971 11.169C48.9755 11.169 48.7738 11.2259 48.592 11.3395C48.4102 11.4503 48.2653 11.608 48.1573 11.8125C48.0494 12.0142 47.9954 12.25 47.9954 12.5199V16.5H46.4528ZM59.1058 16.6321C58.6911 16.6321 58.3175 16.5582 57.9851 16.4105C57.6555 16.2599 57.3942 16.0384 57.201 15.7457C57.0107 15.4531 56.9155 15.0923 56.9155 14.6634C56.9155 14.294 56.9837 13.9886 57.12 13.7472C57.2564 13.5057 57.4425 13.3125 57.6783 13.1676C57.9141 13.0227 58.1797 12.9134 58.4751 12.8395C58.7734 12.7628 59.0817 12.7074 59.3999 12.6733C59.7834 12.6335 60.0945 12.598 60.3331 12.5668C60.5717 12.5327 60.745 12.4815 60.853 12.4134C60.9638 12.3423 61.0192 12.233 61.0192 12.0852V12.0597C61.0192 11.7386 60.924 11.4901 60.7337 11.3139C60.5433 11.1378 60.2692 11.0497 59.9112 11.0497C59.5334 11.0497 59.2337 11.1321 59.0121 11.2969C58.7933 11.4616 58.6456 11.6562 58.5689 11.8807L57.1286 11.6761C57.2422 11.2784 57.4297 10.946 57.6911 10.679C57.9524 10.4091 58.272 10.2074 58.6499 10.0739C59.0277 9.9375 59.4453 9.86932 59.9027 9.86932C60.218 9.86932 60.532 9.90625 60.8445 9.98011C61.157 10.054 61.4425 10.1761 61.701 10.3466C61.9595 10.5142 62.1669 10.7429 62.3232 11.0327C62.4822 11.3224 62.5618 11.6847 62.5618 12.1193V16.5H61.0788V15.6009H61.0277C60.9339 15.7827 60.8018 15.9531 60.6314 16.1122C60.4638 16.2685 60.2521 16.3949 59.9964 16.4915C59.7436 16.5852 59.4467 16.6321 59.1058 16.6321ZM59.5064 15.4986C59.8161 15.4986 60.0845 15.4375 60.3118 15.3153C60.5391 15.1903 60.7138 15.0256 60.8359 14.821C60.9609 14.6165 61.0234 14.3935 61.0234 14.152V13.3807C60.9751 13.4205 60.8928 13.4574 60.7763 13.4915C60.6626 13.5256 60.5348 13.5554 60.3928 13.581C60.2507 13.6065 60.1101 13.6293 59.9709 13.6491C59.8317 13.669 59.7109 13.6861 59.6087 13.7003C59.3786 13.7315 59.1726 13.7827 58.9908 13.8537C58.8089 13.9247 58.6655 14.0241 58.5604 14.152C58.4553 14.277 58.4027 14.4389 58.4027 14.6378C58.4027 14.9219 58.5064 15.1364 58.7138 15.2812C58.9212 15.4261 59.1854 15.4986 59.5064 15.4986ZM63.2468 9.09801V7.77273H70.2099V9.09801H67.5124V16.5H65.9442V9.09801H63.2468ZM73.3899 16.6278C72.7507 16.6278 72.1967 16.4872 71.728 16.206C71.2592 15.9247 70.8956 15.5312 70.6371 15.0256C70.3814 14.5199 70.2536 13.929 70.2536 13.2528C70.2536 12.5767 70.3814 11.9844 70.6371 11.4759C70.8956 10.9673 71.2592 10.5724 71.728 10.2912C72.1967 10.0099 72.7507 9.86932 73.3899 9.86932C74.0291 9.86932 74.5831 10.0099 75.0518 10.2912C75.5206 10.5724 75.8828 10.9673 76.1385 11.4759C76.397 11.9844 76.5263 12.5767 76.5263 13.2528C76.5263 13.929 76.397 14.5199 76.1385 15.0256C75.8828 15.5312 75.5206 15.9247 75.0518 16.206C74.5831 16.4872 74.0291 16.6278 73.3899 16.6278ZM73.3984 15.392C73.745 15.392 74.0348 15.2969 74.2678 15.1065C74.5007 14.9134 74.674 14.6548 74.7876 14.331C74.9041 14.0071 74.9624 13.6463 74.9624 13.2486C74.9624 12.848 74.9041 12.4858 74.7876 12.1619C74.674 11.8352 74.5007 11.5753 74.2678 11.3821C74.0348 11.1889 73.745 11.0923 73.3984 11.0923C73.0433 11.0923 72.7479 11.1889 72.5121 11.3821C72.2791 11.5753 72.1044 11.8352 71.9879 12.1619C71.8743 12.4858 71.8175 12.848 71.8175 13.2486C71.8175 13.6463 71.8743 14.0071 71.9879 14.331C72.1044 14.6548 72.2791 14.9134 72.5121 15.1065C72.7479 15.2969 73.0433 15.392 73.3984 15.392ZM79.2418 14.446L79.2376 12.5838H79.4847L81.837 9.95455H83.6396L80.7461 13.1761H80.4265L79.2418 14.446ZM77.8356 16.5V7.77273H79.3782V16.5H77.8356ZM81.9435 16.5L79.8129 13.5213L80.8526 12.4347L83.7887 16.5H81.9435ZM87.2958 16.6278C86.6396 16.6278 86.0728 16.4915 85.5955 16.2188C85.1211 15.9432 84.756 15.554 84.5004 15.0511C84.2447 14.5455 84.1168 13.9503 84.1168 13.2656C84.1168 12.5923 84.2447 12.0014 84.5004 11.4929C84.7589 10.9815 85.1197 10.5838 85.5827 10.2997C86.0458 10.0128 86.5898 9.86932 87.2148 9.86932C87.6183 9.86932 87.9989 9.93466 88.3569 10.0653C88.7177 10.1932 89.0359 10.392 89.3114 10.6619C89.5898 10.9318 89.8086 11.2756 89.9677 11.6932C90.1268 12.108 90.2063 12.6023 90.2063 13.1761V13.6491H84.8413V12.6094H88.7276C88.7248 12.3139 88.6609 12.0511 88.5359 11.821C88.4109 11.5881 88.2362 11.4048 88.0117 11.2713C87.7901 11.1378 87.5316 11.071 87.2362 11.071C86.9208 11.071 86.6438 11.1477 86.4052 11.3011C86.1665 11.4517 85.9805 11.6506 85.8469 11.8977C85.7163 12.142 85.6495 12.4105 85.6467 12.7031V13.6108C85.6467 13.9915 85.7163 14.3182 85.8555 14.5909C85.9947 14.8608 86.1893 15.0682 86.4393 15.2131C86.6893 15.3551 86.9819 15.4261 87.3171 15.4261C87.5415 15.4261 87.7447 15.3949 87.9265 15.3324C88.1083 15.267 88.266 15.1719 88.3995 15.0469C88.533 14.9219 88.6339 14.767 88.7021 14.5824L90.1424 14.7443C90.0515 15.125 89.8782 15.4574 89.6225 15.7415C89.3697 16.0227 89.0458 16.2415 88.6509 16.3977C88.256 16.5511 87.8043 16.6278 87.2958 16.6278ZM93.054 12.6648V16.5H91.5114V9.95455H92.9858V11.0668H93.0625C93.2131 10.7003 93.4531 10.4091 93.7827 10.1932C94.1151 9.97727 94.5256 9.86932 95.0142 9.86932C95.4659 9.86932 95.8594 9.96591 96.1946 10.1591C96.5327 10.3523 96.794 10.6321 96.9787 10.9986C97.1662 11.3651 97.2585 11.8097 97.2557 12.3324V16.5H95.7131V12.571C95.7131 12.1335 95.5994 11.7912 95.3722 11.544C95.1477 11.2969 94.8366 11.1733 94.4389 11.1733C94.169 11.1733 93.929 11.233 93.7188 11.3523C93.5114 11.4687 93.348 11.6378 93.2287 11.8594C93.1122 12.081 93.054 12.3494 93.054 12.6648ZM100.473 7.77273V16.5H98.892V7.77273H100.473ZM102.117 16.5V9.95455H103.591V11.0668H103.668C103.804 10.6918 104.03 10.3991 104.346 10.1889C104.661 9.97585 105.037 9.86932 105.475 9.86932C105.918 9.86932 106.292 9.97727 106.596 10.1932C106.902 10.4062 107.118 10.6974 107.243 11.0668H107.311C107.456 10.7031 107.701 10.4134 108.044 10.1974C108.391 9.97869 108.801 9.86932 109.276 9.86932C109.878 9.86932 110.37 10.0597 110.75 10.4403C111.131 10.821 111.321 11.3764 111.321 12.1065V16.5H109.775V12.3452C109.775 11.9389 109.667 11.642 109.451 11.4545C109.235 11.2642 108.971 11.169 108.658 11.169C108.286 11.169 107.995 11.2855 107.784 11.5185C107.577 11.7486 107.473 12.0483 107.473 12.4176V16.5H105.961V12.2812C105.961 11.9432 105.858 11.6733 105.654 11.4716C105.452 11.2699 105.188 11.169 104.861 11.169C104.64 11.169 104.438 11.2259 104.256 11.3395C104.074 11.4503 103.929 11.608 103.821 11.8125C103.713 12.0142 103.659 12.25 103.659 12.5199V16.5H102.117ZM112.886 18.9545V9.95455H114.403V11.0369H114.493C114.572 10.8778 114.685 10.7088 114.83 10.5298C114.974 10.348 115.17 10.1932 115.418 10.0653C115.665 9.93466 115.98 9.86932 116.364 9.86932C116.869 9.86932 117.325 9.99858 117.732 10.2571C118.141 10.5128 118.464 10.892 118.703 11.3949C118.945 11.8949 119.065 12.5085 119.065 13.2358C119.065 13.9545 118.947 14.5653 118.712 15.0682C118.476 15.571 118.155 15.9545 117.749 16.2188C117.342 16.483 116.882 16.6151 116.368 16.6151C115.993 16.6151 115.682 16.5526 115.435 16.4276C115.188 16.3026 114.989 16.152 114.838 15.9759C114.69 15.7969 114.575 15.6278 114.493 15.4688H114.429V18.9545H112.886ZM114.399 13.2273C114.399 13.6506 114.459 14.0213 114.578 14.3395C114.7 14.6577 114.875 14.9062 115.102 15.0852C115.332 15.2614 115.611 15.3494 115.938 15.3494C116.278 15.3494 116.564 15.2585 116.794 15.0767C117.024 14.892 117.197 14.6406 117.314 14.3224C117.433 14.0014 117.493 13.6364 117.493 13.2273C117.493 12.821 117.435 12.4602 117.318 12.1449C117.202 11.8295 117.028 11.5824 116.798 11.4034C116.568 11.2244 116.281 11.1349 115.938 11.1349C115.608 11.1349 115.328 11.2216 115.098 11.3949C114.868 11.5682 114.693 11.8111 114.574 12.1236C114.457 12.4361 114.399 12.804 114.399 13.2273ZM123.241 16.6278C122.602 16.6278 122.048 16.4872 121.58 16.206C121.111 15.9247 120.747 15.5312 120.489 15.0256C120.233 14.5199 120.105 13.929 120.105 13.2528C120.105 12.5767 120.233 11.9844 120.489 11.4759C120.747 10.9673 121.111 10.5724 121.58 10.2912C122.048 10.0099 122.602 9.86932 123.241 9.86932C123.881 9.86932 124.435 10.0099 124.903 10.2912C125.372 10.5724 125.734 10.9673 125.99 11.4759C126.249 11.9844 126.378 12.5767 126.378 13.2528C126.378 13.929 126.249 14.5199 125.99 15.0256C125.734 15.5312 125.372 15.9247 124.903 16.206C124.435 16.4872 123.881 16.6278 123.241 16.6278ZM123.25 15.392C123.597 15.392 123.886 15.2969 124.119 15.1065C124.352 14.9134 124.526 14.6548 124.639 14.331C124.756 14.0071 124.814 13.6463 124.814 13.2486C124.814 12.848 124.756 12.4858 124.639 12.1619C124.526 11.8352 124.352 11.5753 124.119 11.3821C123.886 11.1889 123.597 11.0923 123.25 11.0923C122.895 11.0923 122.599 11.1889 122.364 11.3821C122.131 11.5753 121.956 11.8352 121.839 12.1619C121.726 12.4858 121.669 12.848 121.669 13.2486C121.669 13.6463 121.726 14.0071 121.839 14.331C121.956 14.6548 122.131 14.9134 122.364 15.1065C122.599 15.2969 122.895 15.392 123.25 15.392ZM127.687 16.5V9.95455H129.183V11.0455H129.251C129.37 10.6676 129.575 10.3764 129.865 10.1719C130.157 9.96449 130.491 9.8608 130.866 9.8608C130.951 9.8608 131.047 9.86506 131.152 9.87358C131.26 9.87926 131.349 9.8892 131.42 9.90341V11.3224C131.355 11.2997 131.251 11.2798 131.109 11.2628C130.97 11.2429 130.835 11.233 130.704 11.233C130.423 11.233 130.17 11.294 129.946 11.4162C129.724 11.5355 129.549 11.7017 129.422 11.9148C129.294 12.1278 129.23 12.3736 129.23 12.652V16.5H127.687ZM136.065 9.95455V11.1477H132.302V9.95455H136.065ZM133.231 8.38636H134.774V14.5312C134.774 14.7386 134.805 14.8977 134.868 15.0085C134.933 15.1165 135.018 15.1903 135.123 15.2301C135.228 15.2699 135.345 15.2898 135.473 15.2898C135.569 15.2898 135.657 15.2827 135.737 15.2685C135.819 15.2543 135.882 15.2415 135.924 15.2301L136.184 16.4361C136.102 16.4645 135.984 16.4957 135.831 16.5298C135.68 16.5639 135.495 16.5838 135.277 16.5895C134.89 16.6009 134.542 16.5426 134.233 16.4148C133.923 16.2841 133.677 16.0824 133.495 15.8097C133.316 15.5369 133.228 15.196 133.231 14.7869V8.38636ZM140.183 16.6278C139.526 16.6278 138.96 16.4915 138.482 16.2188C138.008 15.9432 137.643 15.554 137.387 15.0511C137.131 14.5455 137.004 13.9503 137.004 13.2656C137.004 12.5923 137.131 12.0014 137.387 11.4929C137.646 10.9815 138.006 10.5838 138.469 10.2997C138.933 10.0128 139.477 9.86932 140.102 9.86932C140.505 9.86932 140.886 9.93466 141.244 10.0653C141.604 10.1932 141.923 10.392 142.198 10.6619C142.477 10.9318 142.695 11.2756 142.854 11.6932C143.013 12.108 143.093 12.6023 143.093 13.1761V13.6491H137.728V12.6094H141.614C141.612 12.3139 141.548 12.0511 141.423 11.821C141.298 11.5881 141.123 11.4048 140.898 11.2713C140.677 11.1378 140.418 11.071 140.123 11.071C139.808 11.071 139.531 11.1477 139.292 11.3011C139.053 11.4517 138.867 11.6506 138.734 11.8977C138.603 12.142 138.536 12.4105 138.533 12.7031V13.6108C138.533 13.9915 138.603 14.3182 138.742 14.5909C138.881 14.8608 139.076 15.0682 139.326 15.2131C139.576 15.3551 139.869 15.4261 140.204 15.4261C140.428 15.4261 140.631 15.3949 140.813 15.3324C140.995 15.267 141.153 15.1719 141.286 15.0469C141.42 14.9219 141.521 14.767 141.589 14.5824L143.029 14.7443C142.938 15.125 142.765 15.4574 142.509 15.7415C142.256 16.0227 141.933 16.2415 141.538 16.3977C141.143 16.5511 140.691 16.6278 140.183 16.6278ZM144.398 16.5V9.95455H145.894V11.0455H145.962C146.081 10.6676 146.286 10.3764 146.576 10.1719C146.868 9.96449 147.202 9.8608 147.577 9.8608C147.662 9.8608 147.757 9.86506 147.863 9.87358C147.971 9.87926 148.06 9.8892 148.131 9.90341V11.3224C148.066 11.2997 147.962 11.2798 147.82 11.2628C147.681 11.2429 147.546 11.233 147.415 11.233C147.134 11.233 146.881 11.294 146.657 11.4162C146.435 11.5355 146.26 11.7017 146.132 11.9148C146.005 12.1278 145.941 12.3736 145.941 12.652V16.5H144.398Z" fill="white"/>
<defs>
<clipPath id="clip0_5_73">
<rect width="20" height="20" fill="white" transform="translate(2 2)"/>
</clipPath>
</defs>
</svg>
